PathFileType	4	(X/Y/Z)	S:\OneDrive - The University of Tokyo\ìåëÂéˆã∆\ÉoÉCÉÅÉJ\ë™íË\hirabayashi_2\Trimmed\Trimmed_BarL20kg1.trc
DataRate	CameraRate	NumFrames	NumMarkers	Units	OrigDataRate	OrigDataStartFrame	OrigNumFrames
200.00	200.00	       24	12	mm	200.00	1	       306
Frame#	Time	BarR0			BarR50			BarR100			BarR130			BarR180			BarR230			BarL0			BarL50			BarL100			BarL130			BarL180			BarL230			
		X1	Y1	Z1	X2	Y2	Z2	X3	Y3	Z3	X4	Y4	Z4	X5	Y5	Z5	X6	Y6	Z6	X7	Y7	Z7	X8	Y8	Z8	X9	Y9	Z9	X10	Y10	Z10	X11	Y11	Z11	X12	Y12	Z12	

1	0.000	-575.95758	2755.40649	1664.47668	-604.78412	2306.19531	1662.40674	-637.25140	1851.85706	1662.07166	-660.68597	1349.38049	1662.43030	-690.07922	902.65356	1662.65393	-713.74225	454.68942	1664.09802	-1113.56238	2807.73535	1664.59436	-1140.80188	2356.10205	1663.19263	-1171.42236	1905.86218	1660.96667	-1198.81396	1404.19141	1661.36218	-1227.44971	952.68781	1663.53845	-1244.68176	506.75369	1667.52319	
2	0.005	-575.95941	2755.40649	1664.47253	-604.80981	2306.24023	1662.40881	-637.27350	1851.86694	1662.06238	-660.68414	1349.37268	1662.44690	-690.05212	902.70001	1662.64954	-713.74231	454.70862	1664.09766	-1113.56506	2807.70581	1664.58862	-1140.80786	2356.11426	1663.18518	-1171.41846	1905.86487	1660.96313	-1198.83691	1404.16455	1661.33740	-1227.46936	952.69397	1663.53040	-1244.68188	506.75381	1667.51538	
3	0.010	-575.95361	2755.42529	1664.45618	-604.81689	2306.24341	1662.41431	-637.26520	1851.84656	1662.07178	-660.71350	1349.38391	1662.44641	-690.06512	902.66241	1662.64185	-713.74170	454.69214	1664.08472	-1113.53418	2807.73364	1664.60645	-1140.80591	2356.10034	1663.19873	-1171.45654	1905.88293	1660.97998	-1198.81384	1404.16980	1661.35559	-1227.46594	952.67908	1663.52136	-1244.69751	506.77255	1667.52112	
4	0.015	-575.95483	2755.41992	1664.46936	-604.83844	2306.27661	1662.40955	-637.26202	1851.82751	1662.06604	-660.71753	1349.37170	1662.45935	-690.07019	902.65448	1662.66492	-713.74701	454.69427	1664.10254	-1113.55481	2807.72192	1664.59851	-1140.81616	2356.09448	1663.19141	-1171.43542	1905.87646	1660.97375	-1198.82996	1404.15466	1661.37341	-1227.47778	952.69659	1663.53027	-1244.68152	506.74988	1667.52637	
5	0.020	-575.95874	2755.40381	1664.46960	-604.81787	2306.23535	1662.41223	-637.28442	1851.85120	1662.05981	-660.70569	1349.38220	1662.43921	-690.06091	902.67273	1662.66345	-713.75140	454.69028	1664.09424	-1113.55920	2807.73267	1664.59741	-1140.80066	2356.11133	1663.18689	-1171.44141	1905.88782	1660.96814	-1198.84119	1404.15759	1661.36267	-1227.47546	952.69250	1663.53748	-1244.70007	506.74722	1667.52832	
6	0.025	-575.97516	2755.42749	1664.46497	-604.81586	2306.22974	1662.40344	-637.27130	1851.88464	1662.08093	-660.70068	1349.41785	1662.45361	-690.05334	902.70422	1662.67810	-713.75006	454.68039	1664.09912	-1113.57654	2807.70483	1664.59790	-1140.80481	2356.11792	1663.18713	-1171.40881	1905.87476	1660.96008	-1198.83130	1404.16162	1661.36841	-1227.47778	952.69666	1663.56458	-1244.68115	506.76389	1667.52661	
7	0.030	-575.95215	2755.41748	1664.45642	-604.81348	2306.22559	1662.42395	-637.30322	1851.88171	1662.07068	-660.72400	1349.40588	1662.45325	-690.05963	902.68976	1662.67371	-713.73907	454.68842	1664.09790	-1113.57422	2807.72461	1664.60754	-1140.79736	2356.11182	1663.18274	-1171.42444	1905.89441	1660.96448	-1198.83362	1404.16809	1661.37708	-1227.46021	952.68719	1663.55371	-1244.68616	506.76352	1667.53430	
8	0.035	-575.95660	2755.41992	1664.46558	-604.79913	2306.25195	1662.41516	-637.30048	1851.87805	1662.05322	-660.68774	1349.40955	1662.43530	-690.04401	902.68512	1662.65222	-713.72076	454.67523	1664.10681	-1113.53418	2807.72900	1664.60132	-1140.80249	2356.11890	1663.18420	-1171.43823	1905.88879	1660.95569	-1198.83606	1404.16626	1661.36084	-1227.47522	952.69659	1663.54614	-1244.68054	506.75406	1667.52258	
9	0.040	-575.95447	2755.38867	1664.46326	-604.81799	2306.21411	1662.39441	-637.29602	1851.85400	1662.08594	-660.70184	1349.39050	1662.45044	-690.05444	902.69818	1662.65466	-713.74298	454.66302	1664.10022	-1113.54968	2807.72852	1664.59546	-1140.80371	2356.10205	1663.19568	-1171.42285	1905.87561	1660.95459	-1198.84033	1404.13477	1661.36267	-1227.45264	952.68359	1663.54712	-1244.68176	506.75955	1667.52295	
10	0.045	-575.95966	2755.41626	1664.47583	-604.78345	2306.22827	1662.39368	-637.26715	1851.85022	1662.05945	-660.69391	1349.38342	1662.47046	-690.06775	902.69873	1662.65015	-713.76843	454.73087	1664.11499	-1113.56116	2807.70728	1664.58960	-1140.80969	2356.09766	1663.20203	-1171.43494	1905.87280	1660.96924	-1198.82898	1404.17517	1661.35266	-1227.49268	952.68469	1663.51904	-1244.68213	506.75500	1667.52673	
11	0.050	-575.96899	2755.40381	1664.47083	-604.81451	2306.23755	1662.39417	-637.28198	1851.84998	1662.06897	-660.72449	1349.37976	1662.45740	-690.05286	902.70215	1662.65234	-713.75104	454.69019	1664.10291	-1113.53137	2807.74316	1664.60706	-1140.81323	2356.08960	1663.19788	-1171.42480	1905.88660	1660.97632	-1198.82336	1404.14844	1661.35803	-1227.45801	952.68896	1663.56042	-1244.67920	506.75269	1667.52026	
12	0.055	-575.96320	2755.41602	1664.46997	-604.81000	2306.23218	1662.41699	-637.27802	1851.82056	1662.06653	-660.72339	1349.39331	1662.45044	-690.06152	902.68408	1662.67090	-713.75018	454.70932	1664.11108	-1113.57239	2807.72559	1664.59265	-1140.79297	2356.09888	1663.20337	-1171.39392	1905.90173	1660.96204	-1198.82544	1404.14648	1661.36658	-1227.45557	952.68555	1663.56213	-1244.68689	506.77689	1667.53088	
13	0.060	-575.96747	2755.40356	1664.47144	-604.81366	2306.21826	1662.39221	-637.29547	1851.85486	1662.07654	-660.69299	1349.41199	1662.45520	-690.03485	902.70807	1662.66736	-713.73865	454.69754	1664.10767	-1113.55676	2807.70166	1664.60095	-1140.82068	2356.09644	1663.20435	-1171.41980	1905.88672	1660.96765	-1198.82849	1404.17212	1661.35583	-1227.46863	952.66174	1663.54688	-1244.68994	506.76196	1667.53564	
14	0.065	-575.95837	2755.39673	1664.45911	-604.83160	2306.22900	1662.40369	-637.27222	1851.89526	1662.03943	-660.71002	1349.39343	1662.45715	-690.06012	902.67926	1662.67529	-713.75964	454.70142	1664.11487	-1113.54333	2807.72534	1664.59070	-1140.81763	2356.08398	1663.19995	-1171.44104	1905.90759	1660.98584	-1198.83752	1404.17554	1661.38318	-1227.47974	952.67963	1663.53760	-1244.68481	506.76312	1667.53650	
15	0.070	-575.95978	2755.41138	1664.44104	-604.81879	2306.23535	1662.39990	-637.28113	1851.86292	1662.04333	-660.70380	1349.39319	1662.44824	-690.07159	902.69324	1662.68359	-713.73889	454.70071	1664.10938	-1113.53748	2807.71265	1664.58960	-1140.79578	2356.10352	1663.18567	-1171.41663	1905.92053	1660.95776	-1198.82727	1404.15198	1661.37500	-1227.47534	952.70001	1663.53406	-1244.68787	506.77679	1667.52649	
16	0.075	-575.96838	2755.43262	1664.46143	-604.82495	2306.20874	1662.42261	-637.26855	1851.87817	1662.06641	-660.71521	1349.39038	1662.45862	-690.06580	902.68896	1662.65381	-713.75970	454.70062	1664.10535	-1113.54919	2807.71143	1664.58020	-1140.80005	2356.10718	1663.19324	-1171.42053	1905.90527	1660.97583	-1198.85400	1404.17273	1661.37012	-1227.47510	952.71021	1663.54248	-1244.68909	506.76294	1667.52051	
17	0.080	-575.94733	2755.40552	1664.47192	-604.83844	2306.21777	1662.39319	-637.30212	1851.89087	1662.08411	-660.71552	1349.39746	1662.45203	-690.05212	902.70160	1662.67761	-713.73877	454.70908	1664.10718	-1113.58679	2807.72070	1664.61084	-1140.79895	2356.08423	1663.18921	-1171.39941	1905.89832	1660.98083	-1198.83911	1404.15662	1661.37158	-1227.48120	952.70087	1663.56226	-1244.69226	506.77203	1667.53601	
18	0.085	-575.96649	2755.42651	1664.46741	-604.82404	2306.24780	1662.42554	-637.26965	1851.85010	1662.05444	-660.70160	1349.40186	1662.45044	-690.04077	902.73639	1662.67993	-713.74823	454.68637	1664.09387	-1113.55737	2807.71411	1664.60364	-1140.81311	2356.11206	1663.19800	-1171.41846	1905.88867	1660.97693	-1198.86316	1404.15491	1661.37573	-1227.48169	952.68304	1663.57275	-1244.70618	506.77719	1667.53625	
19	0.090	-575.96838	2755.41968	1664.45935	-604.82690	2306.22778	1662.41650	-637.30878	1851.86096	1662.06506	-660.68542	1349.38965	1662.45190	-690.03979	902.72021	1662.65820	-713.74316	454.69586	1664.11609	-1113.54907	2807.74438	1664.60376	-1140.79810	2356.10205	1663.21411	-1171.42041	1905.90527	1660.99304	-1198.84424	1404.17810	1661.36462	-1227.47424	952.70825	1663.56494	-1244.70496	506.78323	1667.51904	
20	0.095	-575.96478	2755.43848	1664.46082	-604.81805	2306.24072	1662.41614	-637.27490	1851.88391	1662.06641	-660.71704	1349.39990	1662.43726	-690.06976	902.70172	1662.65979	-713.75763	454.70941	1664.10242	-1113.52600	2807.72339	1664.60608	-1140.80347	2356.09399	1663.20703	-1171.44141	1905.90442	1660.98267	-1198.82422	1404.15308	1661.36682	-1227.46692	952.69769	1663.56567	-1244.70264	506.78702	1667.53650	
21	0.100	-575.95526	2755.41235	1664.47668	-604.82281	2306.24316	1662.40088	-637.28162	1851.88940	1662.08374	-660.71899	1349.38696	1662.46130	-690.06738	902.72217	1662.66650	-713.76196	454.71164	1664.10608	-1113.56445	2807.73047	1664.60107	-1140.77087	2356.09253	1663.20557	-1171.43030	1905.90039	1660.97607	-1198.84521	1404.15576	1661.38318	-1227.47900	952.67969	1663.56128	-1244.69043	506.78207	1667.52429	
22	0.105	-575.96613	2755.41528	1664.47192	-604.81757	2306.24976	1662.40405	-637.28174	1851.85315	1662.09204	-660.70770	1349.39856	1662.45398	-690.05939	902.69312	1662.68201	-713.74731	454.70081	1664.11743	-1113.54504	2807.71948	1664.61816	-1140.84045	2356.10742	1663.19836	-1171.42358	1905.90479	1660.98425	-1198.81848	1404.18823	1661.37952	-1227.47864	952.70654	1663.57813	-1244.69409	506.77890	1667.51404	
23	0.110	-575.96906	2755.40918	1664.48376	-604.81195	2306.23120	1662.41809	-637.28833	1851.83679	1662.05994	-660.70245	1349.37524	1662.46936	-690.05896	902.71014	1662.67603	-713.75525	454.69415	1664.10681	-1113.54297	2807.70752	1664.61145	-1140.81262	2356.08789	1663.20776	-1171.44446	1905.87903	1660.99915	-1198.82886	1404.17188	1661.37061	-1227.45471	952.71252	1663.56238	-1244.69360	506.76181	1667.52979	
24	0.115	-575.96277	2755.42114	1664.48706	-604.83337	2306.24365	1662.41650	-637.29572	1851.85229	1662.05261	-660.70483	1349.41626	1662.45825	-690.06421	902.72174	1662.67920	-713.74377	454.68457	1664.10840	-1113.56042	2807.71362	1664.60681	-1140.83081	2356.09741	1663.19202	-1171.42114	1905.88708	1660.99438	-1198.80298	1404.16614	1661.37280	-1227.47705	952.70660	1663.56946	-1244.68372	506.76025	1667.54028	
